<svg width="144" height="155" viewBox="0 0 144 155" fill="none" xmlns="http://www.w3.org/2000/svg">
<g filter="url(#filter0_d_791_969)">
<path d="M44.1784 15.0223C51.9024 15.3951 58.025 20.2811 61.1848 25.1783C65.6139 31.5098 69.9794 42.4304 69.4758 55.9727C69.4386 56.9729 69.4136 57.8999 69.4018 58.7568C69.4675 58.698 69.5345 58.6394 69.6014 58.5792L69.6967 58.4934L69.7948 58.411C74.6879 54.315 82.195 49.8981 91.5475 47.2677C102.246 44.2586 113.173 47.9697 117.847 57.8514C122.273 67.2099 119.733 79.3157 110.974 91.1403L110.78 91.4007L110.563 91.6428C99.8336 103.632 84.2289 113.601 70.633 120.263C63.7852 123.618 57.2332 126.24 51.7863 127.899C49.073 128.725 46.4963 129.354 44.2122 129.693C42.2723 129.98 39.6357 130.21 37.1665 129.551C27.9306 127.406 24.2145 120.55 22.2189 115.261L22.0034 114.69L21.7491 113.35C16.7179 86.8732 11.657 60.8503 22.1141 30.6761L22.3095 30.112L22.5988 29.589C28.0475 19.7417 35.6479 14.6107 44.1784 15.0223ZM48.9784 32.7124C47.7063 30.6989 45.4525 29.2815 43.611 29.1926C42.5177 29.1399 39.3752 29.4677 35.6494 35.9381C26.8146 61.9389 30.9584 84.3477 36.0027 110.894L36.023 111.002C36.6794 112.642 37.2854 113.678 37.8987 114.363C38.4417 114.97 39.1322 115.474 40.4575 115.768L40.5575 115.791C40.6804 115.789 41.0951 115.784 41.8991 115.665C43.2305 115.468 45.0623 115.045 47.3504 114.348C51.9061 112.961 57.7297 110.654 64.036 107.564C76.6461 101.385 90.3427 92.4888 99.394 82.4784C106.366 72.9428 106.015 66.4843 104.699 63.7022C103.619 61.4183 100.845 59.4545 95.6834 60.9061C88.4317 62.9457 82.7614 66.3388 79.3527 69.1744C76.5179 71.7181 73.7416 73.8971 71.0944 75.1739C68.5467 76.4027 63.5539 77.8957 59.257 74.2123C57.5246 72.7272 56.6176 70.9044 56.1116 69.4928C55.5941 68.049 55.3189 66.5358 55.1567 65.1341C54.8344 62.3481 54.8509 58.963 54.9866 55.3133C55.3759 44.8471 51.9171 36.8817 49.1879 33.0258L49.079 32.8719L48.9784 32.7124Z" fill="#49A691"/>
</g>
<defs>
<filter id="filter0_d_791_969" x="0" y="0" width="143.977" height="154.977" filterUnits="userSpaceOnUse" color-interpolation-filters="sRGB">
<feFlood flood-opacity="0" result="BackgroundImageFix"/>
<feColorMatrix in="SourceAlpha" type="matrix" values="0 0 0 0 0 0 0 0 0 0 0 0 0 0 0 0 0 0 127 0" result="hardAlpha"/>
<feOffset dx="4" dy="5"/>
<feGaussianBlur stdDeviation="10"/>
<feComposite in2="hardAlpha" operator="out"/>
<feColorMatrix type="matrix" values="0 0 0 0 0 0 0 0 0 0 0 0 0 0 0 0 0 0 0.08 0"/>
<feBlend mode="normal" in2="BackgroundImageFix" result="effect1_dropShadow_791_969"/>
<feBlend mode="normal" in="SourceGraphic" in2="effect1_dropShadow_791_969" result="shape"/>
</filter>
</defs>
</svg>
