<svg width="195" height="181" viewBox="0 0 195 181" fill="none" xmlns="http://www.w3.org/2000/svg">
<g filter="url(#filter0_d_791_970)">
<path d="M45.7411 108.899C54.2369 104.714 56.8903 95.8019 51.6677 88.9939C46.4451 82.1859 35.3241 80.0596 26.8283 84.2447C18.3325 88.4298 15.6791 97.3414 20.9017 104.149C26.1243 110.957 37.2453 113.084 45.7411 108.899Z" fill="#49A691"/>
<path d="M58.2958 75.5334C66.7916 71.3483 69.445 62.4367 64.2224 55.6287C58.9998 48.8207 47.8788 46.6944 39.383 50.8794C30.8872 55.0645 28.2338 63.9762 33.4564 70.7842C38.679 77.5922 49.8 79.7185 58.2958 75.5334Z" fill="#49A691"/>
<path d="M95.2255 57.3459C103.721 53.1608 106.375 44.2492 101.152 37.4412C95.9295 30.6332 84.8085 28.5069 76.3127 32.6919C67.8169 36.877 65.1635 45.7887 70.3861 52.5967C75.6087 59.4047 86.7297 61.531 95.2255 57.3459Z" fill="#49A691"/>
<path d="M138.046 63.4299C146.542 59.2448 149.195 50.3332 143.972 43.5252C138.75 36.7171 127.629 34.5908 119.133 38.7759C110.637 42.961 107.984 51.8727 113.206 58.6807C118.429 65.4887 129.55 67.615 138.046 63.4299Z" fill="#49A691"/>
<path d="M135.561 84.0868C126.349 81.6944 118.567 79.6173 109.294 77.2553C104.421 75.987 98.7477 75.1127 93.5326 76.0511C92.7045 76.1873 91.9142 76.3728 91.1617 76.6076C89.4721 77.1681 87.8107 77.9865 86.2109 78.7746C84.611 79.5627 82.9497 80.3811 81.539 81.4157C80.9378 81.8478 80.3744 82.3291 79.8488 82.8598C76.4494 86.1649 74.9231 90.5856 74.0737 94.6729C72.5786 102.339 71.3776 108.842 69.821 116.539C66.7155 126.969 62.2935 138.998 71.8181 148.099C77.4607 152.249 85.7729 155.016 94.9306 152.476C99.9898 151.003 112.095 141.031 127.355 133.514L128.463 132.968C143.722 125.451 160.253 121.248 164.216 118.345C171.179 112.945 171.813 105.703 169.777 99.8434C163.968 88.8449 148.577 86.5754 135.561 84.0868Z" fill="#49A691"/>
</g>
<defs>
<filter id="filter0_d_791_970" x="2.22656" y="15.5471" width="192.562" height="162.902" filterUnits="userSpaceOnUse" color-interpolation-filters="sRGB">
<feFlood flood-opacity="0" result="BackgroundImageFix"/>
<feColorMatrix in="SourceAlpha" type="matrix" values="0 0 0 0 0 0 0 0 0 0 0 0 0 0 0 0 0 0 127 0" result="hardAlpha"/>
<feOffset dx="4" dy="5"/>
<feGaussianBlur stdDeviation="10"/>
<feComposite in2="hardAlpha" operator="out"/>
<feColorMatrix type="matrix" values="0 0 0 0 0 0 0 0 0 0 0 0 0 0 0 0 0 0 0.08 0"/>
<feBlend mode="normal" in2="BackgroundImageFix" result="effect1_dropShadow_791_970"/>
<feBlend mode="normal" in="SourceGraphic" in2="effect1_dropShadow_791_970" result="shape"/>
</filter>
</defs>
</svg>
