<svg width="148" height="194" viewBox="0 0 148 194" fill="none" xmlns="http://www.w3.org/2000/svg">
<path d="M89.8513 2.5005C82.7024 18.6331 64.808 30.8765 48.0281 35.2329C31.2953 39.5771 -0.959117 43.3327 2.80418 17.4014C5.7944 -3.20287 30.439 1.24041 41.3128 12.6111C65.2038 37.594 48.6231 79.0449 53.0518 109.417C57.6675 141.072 76.7133 165.42 107.501 175.162C117.719 178.396 129.713 179.203 140.355 180.77C144.782 181.422 146.947 181.397 141.522 182.333C134.054 183.622 127.149 186.752 120.11 189.468C111.633 192.739 126.298 189.233 129.077 188.908C133.249 188.419 142.014 188.831 144.924 184.887C147.113 181.922 139.672 169.858 138.591 166.387" stroke="#49A691" stroke-width="5" stroke-linecap="round"/>
</svg>
