<svg width="253" height="158" viewBox="0 0 253 158" fill="none" xmlns="http://www.w3.org/2000/svg">
<path d="M2.50086 2.50032C9.73175 24.3277 21.1036 43.4505 42.7602 53.4561C51.2232 57.3661 74.154 67.5819 72.5208 49.9859C71.6303 40.3909 56.7177 25.2695 50.8173 38.2593C43.6427 54.0543 61.3706 69.0414 72.788 76.5773C86.6617 85.7345 110.616 94.071 126.433 85.9995C139.777 79.1902 143.386 60.3766 132.261 50.2625C120.186 39.2853 113.966 51.0639 115.19 63.5154C117.058 82.5053 135.52 92.3569 151.319 98.3808C165.411 103.754 179.212 106.053 191.459 95.8803C203.562 85.8265 204.676 73.4167 195.89 60.394C192.411 55.2377 187.145 50.1678 180.867 48.8764C177.233 48.1286 177.438 53.9218 176.968 56.5013C174.159 71.924 185.334 93.9459 195.128 105.062C210.233 122.208 229.555 133.172 246.628 147.572C254.475 154.192 244.964 151.675 238.301 152.314C230.374 153.074 240.436 154.844 243.416 155.339C244.388 155.5 249.273 155.323 249.998 154.721C251.77 153.249 246.132 132.462 245.76 130.002" stroke="#49A691" stroke-width="5" stroke-linecap="round"/>
</svg>
