<svg width="64" height="160" viewBox="0 0 64 160" fill="none" xmlns="http://www.w3.org/2000/svg">
<path d="M42.935 2.49985C50.9417 21.3354 58.0126 41.8065 42.6571 59.1993C35.3138 67.5169 15.3878 74.1885 13.6249 57.4706C13.0869 52.369 19.4816 47.1751 23.7548 45.6675C30.7357 43.2046 35.8896 46.9425 40.4831 51.7518C52.0132 63.8236 62.2484 83.0978 60.2772 100.374C57.8799 121.385 33.8034 138.917 16.9432 148.273C13.6847 150.082 9.95375 151.907 6.39168 153.045C6.14657 153.123 1.93118 153.612 2.56446 154.408C3.89138 156.077 11.8348 155.754 13.7609 155.974C14.7277 156.084 23.5984 157.618 23.6046 155.513C23.6106 153.473 12.8077 153.273 11.4619 153.407C10.6551 153.488 2.9073 154.896 2.56446 154.408C1.86397 153.412 10.1119 138.238 10.8333 136.201" stroke="#49A691" stroke-width="5" stroke-linecap="round"/>
</svg>
