<svg width="158" height="192" viewBox="0 0 158 192" fill="none" xmlns="http://www.w3.org/2000/svg">
<path d="M68.461 2.50044C74.6543 19.0235 91.8022 32.2922 108.299 37.6225C124.749 42.9377 156.728 48.5729 154.488 22.466C152.708 1.72207 127.845 4.71664 116.325 15.432C91.0143 38.9751 105.143 81.3246 98.9457 111.386C92.4868 142.717 72.0498 165.909 40.7454 173.835C30.3551 176.465 18.3345 176.57 7.61915 177.512C3.16223 177.903 1.0021 177.752 6.36256 179.004C13.7432 180.727 20.4531 184.256 27.3214 187.379C35.5926 191.14 21.1577 186.783 18.4027 186.295C14.2656 185.563 5.49205 185.462 2.81702 181.355C0.805518 178.266 8.93973 166.659 10.2211 163.257" stroke="#49A691" stroke-width="5" stroke-linecap="round"/>
</svg>
